<?xml version="1.0" encoding="UTF-8"?>
<svg width="32px" height="32px" viewBox="0 0 32 32" version="1.1" xmlns="http://www.w3.org/2000/svg" xmlns:xlink="http://www.w3.org/1999/xlink">
    <!-- Generator: Sketch 61 (89581) - https://sketch.com -->
    <title>Favicon</title>
    <desc>Created with Sketch.</desc>
    <g id="Favicon" stroke="none" stroke-width="1" fill="none" fill-rule="evenodd">
        <g id="Group-2" transform="translate(0.000000, 1.000000)">
            <path d="M16.5,6 C15.65,6 15,5.32173913 15,4.43478261 L15,1.56521739 C15,0.67826087 15.65,0 16.5,0 C17.35,0 18,0.67826087 18,1.56521739 L18,4.43478261 C18,5.26956522 17.35,6 16.5,6 Z" id="Path" fill="#4D426D" fill-rule="nonzero" opacity="0.5"></path>
            <path d="M10.6232977,7.50683278 C10.1615957,7.50683278 9.69989371,7.22598121 9.42287252,6.66427805 L8.17627717,4.02427321 C7.80691558,3.23788879 8.03776657,2.17065279 8.68414935,1.72129026 C9.33053213,1.27192774 10.2077659,1.55277931 10.5771275,2.33916374 L11.8237228,4.97916858 C12.1930844,5.765553 11.9622334,6.832789 11.3158507,7.28215152 C11.1311699,7.39449215 10.8541487,7.50683278 10.6232977,7.50683278 Z" id="Path" fill="#4D426D" fill-rule="nonzero" opacity="0.400000006"></path>
            <path d="M23.054552,30.4298325 C22.59285,30.4298325 22.131148,30.1489809 21.8541268,29.5872778 L20.6075315,26.9472729 C20.2381699,26.1608885 20.4690209,25.0936525 21.1154036,24.64429 C21.7617864,24.1949275 22.6390202,24.4757791 23.0083818,25.2621635 L24.2549771,27.9021683 C24.6243387,28.6885527 24.3934877,29.7557887 23.7471049,30.2051513 C23.5162539,30.3736622 23.2854029,30.4298325 23.054552,30.4298325 Z" id="Path" fill="#4D426D" fill-rule="nonzero"></path>
            <path d="M28.4190609,24.7210382 C28.1846185,24.7210382 27.950176,24.6749648 27.7157335,24.5367446 L25.4650859,23.2927627 C24.808647,22.9241755 24.5742045,22.0487808 24.9493125,21.4037532 C25.3244204,20.7587256 26.2153018,20.5283586 26.8717407,20.8969458 L29.0754998,22.1409276 C29.7319387,22.5095149 29.9663812,23.3849095 29.5912732,24.0299371 C29.3568308,24.4906712 28.8879459,24.7210382 28.4190609,24.7210382 Z" id="Path" fill="#4D426D" fill-rule="nonzero" opacity="0.900000036"></path>
            <path d="M29.6560566,17.8066283 L26.7864914,17.8066283 C25.8995349,17.8066283 25.221274,17.1566283 25.221274,16.3066283 C25.221274,15.4566283 25.8995349,14.8066283 26.7864914,14.8066283 L29.6560566,14.8066283 C30.5430131,14.8066283 31.221274,15.4566283 31.221274,16.3066283 C31.221274,17.1566283 30.5430131,17.8066283 29.6560566,17.8066283 Z" id="Path" fill="#4D426D" fill-rule="nonzero" opacity="0.800000012"></path>
            <path d="M27.1450039,10.7551415 C26.676119,10.7551415 26.207234,10.5247745 25.9259031,10.0640404 C25.5507951,9.41901279 25.7852376,8.54361815 26.4416765,8.17503093 L28.6454357,6.93104907 C29.3018746,6.56246185 30.1927559,6.79282886 30.5678639,7.43785649 C30.9429718,8.08288413 30.7085294,8.95827877 30.0520905,9.32686599 L27.8483313,10.5708479 C27.6138888,10.7090681 27.3794464,10.7551415 27.1450039,10.7551415 Z" id="Path" fill="#4D426D" fill-rule="nonzero" opacity="0.699999988"></path>
            <path d="M22.345035,8.41366694 C22.114184,8.41366694 21.883333,8.35749663 21.652482,8.18898568 C21.0060992,7.73962315 20.7752482,6.67238715 21.1446098,5.88600273 L22.3912052,3.24599789 C22.7605668,2.45961347 23.6378005,2.17876189 24.2841833,2.62812442 C24.9305661,3.07748695 25.1614171,4.14472295 24.7920555,4.93110737 L23.5454601,7.57111221 C23.2684389,8.07664505 22.806737,8.41366694 22.345035,8.41366694 Z" id="Path" fill="#4D426D" fill-rule="nonzero" opacity="0.600000024"></path>
            <text id="7" font-family="Roboto-Bold, Roboto" font-size="14" font-weight="bold" fill="#FF8B66">
                <tspan x="17" y="21">7</tspan>
            </text>
            <circle id="Oval" fill="#4D426D" transform="translate(9.023409, 18.472729) rotate(4.000000) translate(-9.023409, -18.472729) " cx="9.02340937" cy="18.4727295" r="8"></circle>
            <text id="24" font-family="Roboto-Bold, Roboto" font-size="10" font-weight="bold" fill="#FF8B66">
                <tspan x="2.98853113" y="22.4715115">24</tspan>
            </text>
        </g>
    </g>
</svg>