<svg xmlns="http://www.w3.org/2000/svg" width="21" height="21" viewBox="0 0 21 21" class="filter__icon">
    <g fill="none" fill-rule="nonzero">
        <path fill="#41cebc" d="M21 10.193h-7.494C13.14 8.93 11.934 8 10.5 8c-1.434 0-2.639.929-3.006 2.193H0v1.614h7.494C7.86 13.07 9.066 14 10.5 14c1.434 0 2.639-.929 3.006-2.193H21v-1.614z"></path>
        <path fill="#4d426d" d="M17.876 15c-1.433 0-2.639.929-3.006 2.193H0v1.614h14.87C15.237 20.07 16.443 21 17.876 21 19.601 21 21 19.657 21 18s-1.399-3-3.124-3zM3.124 6c1.433 0 2.639-.929 3.006-2.193H21V2.193H6.13C5.763.93 4.557 0 3.124 0 1.399 0 0 1.343 0 3s1.399 3 3.124 3z"></path>
    </g>
</svg>