<svg xmlns="http://www.w3.org/2000/svg" width="23" height="19" viewBox="0 0 23 19">
    <g fill="#55CDDB" fill-rule="nonzero">
        <path d="M5.338 14a.449.449 0 0 1-.402-.25L1.253 6.327a4.49 4.49 0 0 1-.386-1.829C.868 2.019 2.874 0 5.338 0c2.466 0 4.47 2.018 4.47 4.499a4.49 4.49 0 0 1-.385 1.828L5.74 13.75a.45.45 0 0 1-.402.25zM2.063 5.933l3.275 6.602 3.275-6.602c.196-.453.296-.936.296-1.434 0-1.982-1.602-3.594-3.571-3.594-1.97 0-3.571 1.612-3.571 3.594 0 .498.1.98.296 1.434zM18.252 14a.449.449 0 0 1-.403-.25l-3.682-7.423a4.49 4.49 0 0 1-.386-1.829c0-2.48 2.006-4.498 4.47-4.498 2.465 0 4.47 2.018 4.47 4.499a4.49 4.49 0 0 1-.385 1.828l-3.682 7.423a.45.45 0 0 1-.402.25zm-3.276-8.067l3.276 6.602 3.275-6.602c.196-.453.296-.936.296-1.434 0-1.982-1.602-3.594-3.571-3.594-1.97 0-3.571 1.612-3.571 3.594 0 .498.1.98.295 1.434z"/>
        <path d="M5.338 7a2.495 2.495 0 0 1-2.484-2.5C2.854 3.12 3.968 2 5.338 2A2.495 2.495 0 0 1 7.82 4.5c0 1.378-1.114 2.5-2.483 2.5zm0-4.074A1.57 1.57 0 0 0 3.774 4.5a1.57 1.57 0 0 0 1.564 1.574A1.57 1.57 0 0 0 6.9 4.5a1.57 1.57 0 0 0-1.563-1.574zM18.252 7a2.495 2.495 0 0 1-2.484-2.5c0-1.379 1.114-2.5 2.484-2.5a2.495 2.495 0 0 1 2.483 2.5c0 1.378-1.114 2.5-2.483 2.5zm0-4.074A1.57 1.57 0 0 0 16.688 4.5a1.57 1.57 0 0 0 1.564 1.574A1.57 1.57 0 0 0 19.815 4.5a1.57 1.57 0 0 0-1.563-1.574zM4.841 19a1.996 1.996 0 0 1-1.987-2c0-1.103.892-2 1.987-2 1.096 0 1.987.897 1.987 2s-.891 2-1.987 2zm0-3.082A1.08 1.08 0 0 0 3.766 17a1.08 1.08 0 0 0 1.075 1.082A1.08 1.08 0 0 0 5.916 17a1.08 1.08 0 0 0-1.075-1.082zM18.748 19a1.996 1.996 0 0 1-1.986-2c0-1.103.89-2 1.986-2s1.987.897 1.987 2-.891 2-1.987 2zm0-3.082A1.08 1.08 0 0 0 17.674 17a1.08 1.08 0 0 0 1.074 1.082A1.08 1.08 0 0 0 19.823 17a1.08 1.08 0 0 0-1.075-1.082z"/>
        <path d="M17.344 18h-3.41c-.226 0-.41-.224-.41-.5s.184-.5.41-.5h3.41c.227 0 .411.224.411.5s-.184.5-.41.5zm-6.696 0h-3.41c-.226 0-.41-.224-.41-.5s.184-.5.41-.5h3.41c.227 0 .41.224.41.5s-.183.5-.41.5zM12.291 18a.5.5 0 0 0 0-1 .5.5 0 0 0 0 1z"/>
    </g>
</svg>
