<svg xmlns="http://www.w3.org/2000/svg" width="13" height="18" viewBox="0 0 13 18">
    <g fill="#4BC6D6" fill-rule="nonzero">
        <path d="M6.868 0C3.58 0 .908 2.839.908 6.328c0 1.18.307 2.33.889 3.328l4.731 8.095c.09.155.25.249.422.249h.004a.492.492 0 0 0 .422-.256l4.611-8.174c.55-.977.84-2.098.84-3.242 0-3.49-2.673-6.328-5.96-6.328zm4.267 9.029l-4.192 7.43L2.64 9.1a5.51 5.51 0 0 1-.747-2.772c0-2.908 2.235-5.28 4.974-5.28 2.738 0 4.97 2.372 4.97 5.28 0 .954-.246 1.888-.703 2.7z"/>
        <path d="M6.868 3c-1.644 0-2.98 1.346-2.98 3 0 1.644 1.315 3 2.98 3 1.685 0 2.98-1.374 2.98-3 0-1.654-1.337-3-2.98-3zm0 5.007A2.002 2.002 0 0 1 4.874 6c0-1.103.898-2.007 1.994-2.007 1.095 0 1.99.904 1.99 2.007 0 1.09-.872 2.007-1.99 2.007z"/>
    </g>
</svg>
