<svg xmlns="http://www.w3.org/2000/svg" width="72" height="61" viewBox="0 0 72 61">
    <g fill="none" fill-rule="evenodd" transform="translate(0 -3)">
        <g fill="#4D426D" fill-rule="nonzero">
            <path d="M39.087 15.08c-1.662.116-3.028-1.162-3.153-2.95l-.405-5.785c-.125-1.789 1.05-3.245 2.712-3.361 1.662-.116 3.028 1.162 3.154 2.95l.404 5.785c.118 1.683-1.05 3.245-2.712 3.361z" opacity=".5"/>
            <path d="M27.536 18.53c-.984.069-2.005-.38-2.668-1.372l-2.999-4.673c-.889-1.393-.534-3.392.787-4.315 1.32-.924 3.228-.538 4.117.855l2.998 4.673c.89 1.393.534 3.392-.786 4.315-.38.235-.956.483-1.449.517z" opacity=".4"/>
            <path d="M56.33 62.495c-.984.069-2.005-.38-2.668-1.372l-3-4.673c-.888-1.393-.533-3.392.788-4.315 1.32-.924 3.228-.538 4.117.855l2.998 4.673c.89 1.393.534 3.392-.786 4.315-.471.345-.956.483-1.449.517z"/>
            <path d="M65.78 51.265a2.766 2.766 0 0 1-1.529-.308l-4.994-2.444c-1.458-.726-2.095-2.648-1.396-4.146.7-1.497 2.564-2.145 4.021-1.42l4.895 2.453c1.458.726 2.095 2.647 1.395 4.145-.428 1.065-1.392 1.65-2.392 1.72z" opacity=".9"/>
            <path d="M18.182 39.795l-5.61.393c-1.734.12-3.156-1.154-3.28-2.942-.126-1.788 1.105-3.248 2.839-3.37l5.61-.392c1.734-.121 3.156 1.154 3.281 2.942.125 1.788-1.207 3.255-2.84 3.37z"/>
            <path d="M68.305 36.29l-5.61.393c-1.735.12-3.156-1.154-3.281-2.942-.125-1.788 1.105-3.248 2.84-3.37l5.61-.392c1.734-.12 3.155 1.154 3.28 2.942.126 1.788-1.105 3.248-2.84 3.37z" opacity=".8"/>
            <path d="M59.104 24.779c-1 .07-2.036-.376-2.708-1.363-.9-1.386-.537-3.378.805-4.3l4.506-3.109c1.342-.921 3.279-.54 4.18.846.9 1.386.537 3.378-.805 4.3l-4.506 3.109a2.766 2.766 0 0 1-1.472.517z" opacity=".7"/>
            <path d="M50.472 16.926a2.684 2.684 0 0 1-1.506-.31c-1.436-.73-2.066-2.66-1.38-4.163l2.32-5.046c.686-1.502 2.52-2.15 3.957-1.42 1.437.731 2.067 2.661 1.38 4.164l-2.319 5.045c-.526.972-1.467 1.661-2.452 1.73z" opacity=".6"/>
        </g>
        <circle cx="17" cy="34" r="17" fill="#4D426D" fill-rule="nonzero"/>
        <text fill="#FF8B66" font-family="Roboto-Bold, Roboto" font-size="20" font-weight="bold">
            <tspan x="5" y="42">24</tspan>
        </text>
        <text fill="#FF8B66" font-family="Roboto-Bold, Roboto" font-size="36" font-weight="bold">
            <tspan x="33" y="48">7</tspan>
        </text>
        <text fill="#FF8B66" font-family="Roboto-Bold, Roboto" font-size="12" font-weight="bold">
            <tspan x="0" y="63">INSIDER</tspan>
        </text>
    </g>
</svg>
