<svg xmlns="http://www.w3.org/2000/svg" width="22" height="17" viewBox="0 0 22 17">
    <path fill="#FFF" fill-rule="nonzero" d="M.5 8.515c0-.403.316-.729.706-.729h18l-5.294-6.068a.747.747 0 0 1-.147-.714.716.716 0 0 1 .526-.488.694.694 0 0 1 .673.226l6.352 7.284a.62.62 0 0 1 .12.183c.04.087.06.18.064.276a.748.748 0 0 1-.056.277l-.05.073a.529.529 0 0 1-.078.139l-6.352 7.284a.694.694 0 0 1-.673.226.716.716 0 0 1-.526-.488.747.747 0 0 1 .147-.714l5.294-6.039h-18A.717.717 0 0 1 .5 8.515z"/>
</svg>
