<svg xmlns="http://www.w3.org/2000/svg" width="20" height="20" viewBox="0 0 20 20">
    <path fill="#4BC6D6" fill-rule="nonzero" stroke="#55CDDB" stroke-width=".5" d="M15.278 19c-.744 0-1.642-.188-2.63-.563-2.167-.822-4.523-2.447-6.637-4.575S2.283 9.361 1.466 7.18C.723 5.197.72 3.57 1.46 2.825c.107-.107.215-.222.327-.34C2.463 1.768 3.227.964 4.238 1c.697.03 1.373.465 2.064 1.332 2.044 2.558 1.122 3.47.056 4.527l-.188.188c-.175.175-.504.988 2.562 4.075 1 1.007 1.854 1.745 2.536 2.19.43.282 1.198.707 1.513.39l.19-.193c1.048-1.071 1.954-1.996 4.494.06.86.696 1.293 1.375 1.322 2.078.041 1.018-.764 1.788-1.475 2.467-.117.113-.232.222-.338.329-.368.37-.955.556-1.696.556zM4.166 1.605c-.719 0-1.368.688-1.942 1.297-.116.122-.227.24-.337.351-.552.555-.496 2.012.141 3.714.788 2.102 2.354 4.4 4.409 6.468 2.054 2.067 4.335 3.643 6.424 4.436 1.69.643 3.138.697 3.688.143.11-.11.228-.223.35-.339.617-.59 1.318-1.26 1.287-2.003-.02-.51-.39-1.06-1.097-1.632-2.117-1.713-2.708-1.108-3.69-.106l-.192.195c-.47.473-1.232.368-2.266-.308-.718-.47-1.604-1.234-2.634-2.271C5.763 8.989 4.95 7.42 5.745 6.618l.192-.191c.998-.988 1.6-1.584-.103-3.716C5.264 2 4.72 1.628 4.213 1.606h-.047z"/>
</svg>
