<svg xmlns="http://www.w3.org/2000/svg" width="17" height="13" viewBox="0 0 17 13">
    <path fill="#3ecdbb" fill-rule="nonzero" d="M.882 6.886c0-.302.238-.546.531-.546h13.55l-3.986-4.552a.559.559 0 0 1-.11-.535.538.538 0 0 1 .396-.366.524.524 0 0 1 .506.17l4.782 5.463c.038.04.069.086.09.136a.56.56 0 0 1 .048.208.56.56 0 0 1-.042.208l-.037.054a.396.396 0 0 1-.059.104l-4.782 5.464a.524.524 0 0 1-.506.17.538.538 0 0 1-.396-.367.559.559 0 0 1 .11-.535l3.986-4.53H1.413a.539.539 0 0 1-.531-.546z"/>
</svg>
